<?xml version="1.0" standalone="no"?>
<!DOCTYPE svg PUBLIC "-//W3C//DTD SVG 20010904//EN"
 "http://www.w3.org/TR/2001/REC-SVG-20010904/DTD/svg10.dtd">
<svg version="1.0" xmlns="http://www.w3.org/2000/svg"
 width="27.000000pt" height="18.000000pt" viewBox="0 0 27.000000 18.000000"
 preserveAspectRatio="xMidYMid meet">

<g transform="translate(0.000000,18.000000) scale(0.100000,-0.100000)"
fill="#000000" stroke="none">
<path d="M0 160 c0 -19 7 -20 135 -20 128 0 135 1 135 20 0 19 -7 20 -135 20
-128 0 -135 -1 -135 -20z"/>
<path d="M0 90 c0 -19 7 -20 135 -20 128 0 135 1 135 20 0 19 -7 20 -135 20
-128 0 -135 -1 -135 -20z"/>
<path d="M0 20 c0 -19 7 -20 135 -20 128 0 135 1 135 20 0 19 -7 20 -135 20
-128 0 -135 -1 -135 -20z"/>
</g>
</svg>
