<?xml version="1.0" standalone="no"?>
<!DOCTYPE svg PUBLIC "-//W3C//DTD SVG 20010904//EN"
 "http://www.w3.org/TR/2001/REC-SVG-20010904/DTD/svg10.dtd">
<svg version="1.0" xmlns="http://www.w3.org/2000/svg"
 width="219.000000pt" height="16.000000pt" viewBox="0 0 219.000000 16.000000"
 preserveAspectRatio="xMidYMid meet">

<g transform="translate(0.000000,16.000000) scale(0.100000,-0.100000)"
fill="#000000" stroke="none">
<path d="M60 110 c0 -27 5 -50 10 -50 6 0 10 23 10 50 0 28 -4 50 -10 50 -5 0
-10 -22 -10 -50z"/>
<path d="M1772 91 c2 -30 8 -56 13 -58 13 -4 7 88 -7 102 -6 6 -8 -9 -6 -44z"/>
<path d="M14 104 c-22 -33 -10 -72 29 -94 24 -13 30 -13 54 0 39 22 51 61 29
95 -9 14 -21 23 -26 20 -6 -4 -3 -16 6 -30 27 -41 -14 -87 -57 -65 -20 11 -27
64 -9 75 6 3 10 10 10 16 0 18 -20 9 -36 -17z"/>
<path d="M930 99 c0 -5 5 -7 10 -4 6 3 16 3 22 -1 9 -6 5 -10 -12 -14 -39 -9
-34 -44 8 -48 31 -3 32 -2 32 31 0 23 -6 37 -16 41 -24 9 -44 7 -44 -5z m45
-38 c3 -5 1 -13 -5 -16 -15 -9 -43 3 -35 15 8 13 32 13 40 1z"/>
<path d="M1001 67 l2 -42 6 35 c4 22 12 35 21 35 9 0 17 -13 21 -35 l6 -35 4
35 c2 23 9 35 19 35 9 0 18 -13 22 -35 l6 -35 -1 40 -2 40 -52 2 -53 3 1 -43z"/>
<path d="M1132 98 c-28 -28 -6 -69 38 -67 20 1 21 2 5 6 -34 8 -41 23 -11 23
23 0 27 4 24 23 -3 25 -36 35 -56 15z m46 -16 c2 -7 -6 -12 -17 -12 -21 0 -27
11 -14 24 9 9 26 2 31 -12z"/>
<path d="M1212 68 l1 -43 4 38 c4 39 11 45 32 25 11 -11 13 -10 9 2 -3 8 -14
16 -26 18 -20 3 -22 -1 -20 -40z"/>
<path d="M1312 101 c-8 -5 -12 -21 -10 -37 2 -24 8 -29 33 -31 28 -2 28 -1 5
5 -14 5 -26 16 -28 26 -4 21 16 38 36 31 6 -2 12 0 12 5 0 12 -30 13 -48 1z"/>
<path d="M1380 101 c0 -6 7 -8 15 -5 8 3 20 2 27 -2 9 -6 4 -10 -17 -14 -22
-4 -30 -11 -30 -25 0 -15 8 -21 33 -23 33 -3 33 -3 30 35 -3 33 -7 38 -30 41
-16 2 -28 -1 -28 -7z m43 -46 c1 -5 -6 -11 -15 -13 -11 -2 -18 3 -18 13 0 17
30 18 33 0z"/>
<path d="M1457 104 c-11 -11 -8 -74 3 -74 6 0 10 16 10 35 0 43 27 49 36 8 10
-47 13 -50 11 -8 -2 35 -5 40 -27 43 -14 2 -29 0 -33 -4z"/>
<path d="M1541 96 c-7 -8 -11 -25 -9 -38 2 -19 10 -23 38 -24 26 -1 28 -1 8 3
-35 6 -37 23 -2 23 21 0 25 4 22 23 -4 26 -39 35 -57 13z m43 -17 c-7 -11 -34
-12 -34 -1 0 14 11 21 26 15 8 -3 11 -9 8 -14z"/>
<path d="M1620 101 c0 -6 7 -8 15 -5 8 3 20 2 27 -2 9 -6 4 -10 -17 -14 -22
-4 -30 -11 -30 -25 0 -15 8 -21 33 -23 33 -3 33 -3 30 35 -3 33 -7 38 -30 41
-16 2 -28 -1 -28 -7z m45 -40 c3 -5 1 -13 -5 -16 -15 -9 -43 3 -35 15 8 13 32
13 40 1z"/>
<path d="M1702 98 c-25 -25 -6 -68 31 -68 10 0 15 -5 11 -11 -3 -6 -15 -9 -25
-6 -11 3 -19 1 -19 -5 0 -5 12 -8 28 -6 25 3 27 7 30 56 3 49 2 52 -20 52 -13
0 -29 -5 -36 -12z m43 -29 c0 -28 -29 -38 -39 -13 -7 19 11 47 28 41 6 -2 11
-14 11 -28z"/>
<path d="M1814 96 c-3 -8 -4 -25 -2 -38 2 -19 10 -23 38 -25 23 -1 27 1 10 4
-40 8 -48 23 -12 23 20 0 32 5 32 13 0 32 -55 51 -66 23z m43 -22 c-3 -4 -14
-3 -24 0 -15 6 -15 8 -3 16 16 10 39 -4 27 -16z"/>
<path d="M1924 96 c-3 -8 -4 -25 -2 -38 2 -18 10 -23 33 -25 28 -2 28 -1 5 5
-37 11 -39 47 -3 60 l28 10 -28 1 c-15 1 -30 -5 -33 -13z"/>
<path d="M2001 96 c-7 -8 -11 -25 -9 -38 2 -18 9 -23 33 -23 28 0 30 3 30 35
0 28 -4 36 -21 38 -11 2 -26 -4 -33 -12z m44 -27 c0 -28 -29 -38 -39 -13 -7
19 11 47 28 41 6 -2 11 -14 11 -28z"/>
<path d="M2076 103 c-10 -10 -7 -73 4 -73 6 0 10 16 10 36 0 45 24 42 28 -4 4
-42 20 -41 24 0 4 42 21 39 30 -4 6 -31 6 -31 5 7 l-2 40 -46 2 c-26 1 -49 -1
-53 -4z"/>
<path d="M1270 65 c0 -19 5 -35 10 -35 6 0 10 16 10 35 0 19 -4 35 -10 35 -5
0 -10 -16 -10 -35z"/>
<path d="M1890 70 c0 -5 5 -10 10 -10 6 0 10 5 10 10 0 6 -4 10 -10 10 -5 0
-10 -4 -10 -10z"/>
</g>
</svg>
